<svg width="23" height="23" viewBox="0 0 23 23" fill="none" xmlns="http://www.w3.org/2000/svg">
<path fill-rule="evenodd" clip-rule="evenodd" d="M8.86307 12.0153H21.5801C21.9347 12.0153 22.2222 12.3039 22.2222 12.6599V14.7882C22.2222 15.0841 22.0236 15.3333 21.753 15.4091V17.2657C21.753 18.7653 20.8059 20.0468 19.4806 20.54L19.8132 21.046C20.0084 21.343 19.9266 21.7428 19.6307 21.9388C19.5218 22.0109 19.399 22.0453 19.2776 22.0453C19.0692 22.0453 18.8646 21.9436 18.7412 21.7557L18.0843 20.7563H4.36012L3.70325 21.7557C3.57983 21.9436 3.37527 22.0453 3.16669 22.0453C3.04531 22.0453 2.92264 22.0111 2.8137 21.9388C2.51769 21.7428 2.43596 21.343 2.6313 21.046L2.96383 20.54C1.63851 20.0468 0.691346 18.7653 0.691346 17.2657V15.4091C0.420685 15.3333 0.222168 15.0841 0.222168 14.7882V12.6599C0.222168 12.3039 0.509673 12.0153 0.864295 12.0153H1.5475V2.48099C1.5475 1.13796 2.63603 0.0453491 3.97404 0.0453491C5.01204 0.0453491 5.93483 0.707798 6.27033 1.6938L6.51702 2.42195C7.83952 2.33159 9.09648 3.17184 9.48217 4.50048L9.67295 5.15773C9.7206 5.32183 9.70135 5.49825 9.61942 5.64809C9.53747 5.79796 9.39958 5.90903 9.23608 5.95686L4.92983 7.21627C4.60056 7.31983 4.22317 7.11157 4.1337 6.77773L3.94296 6.12048C3.56231 4.80912 4.15218 3.44164 5.2866 2.79397L5.05475 2.10961C4.89709 1.64624 4.46264 1.33441 3.97404 1.33441C3.34416 1.33441 2.83176 1.84875 2.83176 2.48099V12.0153H4.1173C4.15937 11.7002 4.42757 11.457 4.75302 11.457H8.22735C8.5528 11.457 8.82102 11.7002 8.86307 12.0153ZM8.26035 4.89952L8.24918 4.86108C8.04572 4.16008 7.40519 3.7038 6.71189 3.7038C6.56403 3.7038 6.41377 3.72456 6.26489 3.76812C5.41757 4.01593 4.92906 4.9094 5.17596 5.75989L5.18714 5.79835L8.26035 4.89952ZM5.39515 12.7461H7.58522V16.9126H5.39515V12.7461ZM20.4688 15.2592C20.4688 14.884 20.6543 14.5515 20.9379 14.3492L20.9381 13.3044H8.86953V17.5571C8.86953 17.9131 8.58202 18.2016 8.2274 18.2016H4.75306C4.39844 18.2016 4.11093 17.9131 4.11093 17.5571V13.3044H1.50642V14.3492C1.79014 14.5515 1.9756 14.8841 1.9756 15.2592V17.2657C1.9756 18.4797 2.95954 19.4673 4.16894 19.4673H18.2754C19.4848 19.4673 20.4688 18.4797 20.4688 17.2657V15.2592Z" fill="#6F7075"/>
</svg>
