<svg width="28" height="23" viewBox="0 0 28 23" fill="none" xmlns="http://www.w3.org/2000/svg">
<path fill-rule="evenodd" clip-rule="evenodd" d="M1.30699 21.3798C1.30699 21.735 1.06403 22.0226 0.764579 22.0226C0.465122 22.0226 0.222168 21.735 0.222168 21.3798V0.665502C0.222168 0.310591 0.465122 0.022644 0.764579 0.022644C1.06403 0.022644 1.30699 0.310591 1.30699 0.665502V12.1459H26.1373V9.23696C26.1373 8.88206 26.3803 8.5941 26.6798 8.5941C26.9792 8.5941 27.2222 8.88206 27.2222 9.23696V21.3798C27.2222 21.735 26.9792 22.0226 26.6798 22.0226C26.3803 22.0226 26.1373 21.735 26.1373 21.3798V17.0031H1.30699V21.3798ZM26.1373 15.7173V13.4316H1.30699V15.7173H26.1373Z" fill="#6F7075"/>
<path fill-rule="evenodd" clip-rule="evenodd" d="M3.13794 6.31634C3.13794 4.68534 4.46006 3.36322 6.09106 3.36322C7.72131 3.36511 9.0423 4.68629 9.04419 6.31634C9.04419 7.94735 7.72207 9.26947 6.09106 9.26947C4.46006 9.26947 3.13794 7.94735 3.13794 6.31634ZM4.22277 6.31634C4.22277 7.34825 5.05916 8.18464 6.09106 8.18464C7.1224 8.18351 7.95823 7.34786 7.95936 6.31634C7.95936 5.28464 7.12277 4.44805 6.09106 4.44805C5.05916 4.44805 4.22277 5.28464 4.22277 6.31634Z" fill="#6F7075"/>
<path fill-rule="evenodd" clip-rule="evenodd" d="M24.4098 9.2789H10.5481C10.2487 9.2789 10.0057 9.03632 10.0057 8.73649V3.31237C10.0057 3.01292 10.2487 2.76996 10.5481 2.76996H18.9857C22.2795 2.77374 24.9488 5.44303 24.9522 8.73649C24.9522 9.03632 24.7095 9.2789 24.4098 9.2789ZM18.9857 3.85478H11.0905V8.19407H23.8372C23.5581 5.72497 21.4707 3.85818 18.9857 3.85478Z" fill="#6F7075"/>
</svg>
