<svg width="27" height="21" viewBox="0 0 27 21" fill="none" xmlns="http://www.w3.org/2000/svg">
<path fill-rule="evenodd" clip-rule="evenodd" d="M1.54646 8.17957C0.994171 8.17957 0.546456 8.62728 0.546456 9.17956V16.0784L0.420333 19.2725C0.413988 19.4332 0.590254 19.5353 0.726472 19.4498L3.74376 17.5567H12.44C12.9923 17.5567 13.44 17.109 13.44 16.5567V9.17957C13.44 8.62728 12.9923 8.17957 12.44 8.17957H1.54646Z" fill="#B7B7BA"/>
<path d="M20.3392 15.9078L20.3393 15.9078L23.683 19.2515C23.683 19.2515 23.683 19.2515 23.683 19.2515L23.6834 19.2519L20.3392 15.9078ZM20.3392 15.9078C20.2132 15.7817 20.0423 15.7109 19.8641 15.7108M20.3392 15.9078L19.8641 15.7108M19.8641 15.7108C19.8641 15.7108 19.8641 15.7108 19.864 15.7108H19.8641ZM19.8741 7.70271C19.7481 7.82876 19.6773 7.99972 19.6773 8.17799C19.6773 8.35625 19.7481 8.52721 19.8741 8.65326C20.0002 8.77931 20.1711 8.85013 20.3494 8.85013C20.5277 8.85013 20.6986 8.77931 20.8247 8.65326C20.9507 8.52721 21.0215 8.35625 21.0215 8.17799C21.0215 7.99972 20.9507 7.82876 20.8247 7.70271C20.6986 7.57666 20.5277 7.50584 20.3494 7.50584C20.1711 7.50584 20.0002 7.57666 19.8741 7.70271ZM15.1856 7.70271C15.0595 7.82876 14.9887 7.99972 14.9887 8.17799C14.9887 8.35625 15.0595 8.52721 15.1856 8.65326C15.3116 8.77931 15.4826 8.85013 15.6608 8.85013C15.8391 8.85013 16.0101 8.77931 16.1361 8.65326C16.2622 8.52721 16.333 8.35625 16.333 8.17799C16.333 7.99972 16.2622 7.82876 16.1361 7.70271C16.0101 7.57666 15.8391 7.50584 15.6608 7.50584C15.4826 7.50584 15.3116 7.57666 15.1856 7.70271ZM10.497 8.65326C10.6231 8.77931 10.794 8.85013 10.9723 8.85013C11.1505 8.85013 11.3215 8.77931 11.4476 8.65326C11.5736 8.52721 11.6444 8.35625 11.6444 8.17799C11.6444 7.99972 11.5736 7.82876 11.4476 7.70271C11.3215 7.57666 11.1505 7.50584 10.9723 7.50584C10.794 7.50584 10.6231 7.57666 10.497 7.70271C10.371 7.82876 10.3001 7.99972 10.3001 8.17799C10.3001 8.35625 10.371 8.52721 10.497 8.65326Z" fill="#B7B7BA" stroke="white"/>
</svg>
