<svg width="21" height="19" viewBox="0 0 21 19" fill="none" xmlns="http://www.w3.org/2000/svg">
<path d="M14.9092 0.145142C14.0259 0.145013 13.1556 0.358025 12.3721 0.766094C11.5887 1.17416 10.9154 1.76524 10.4092 2.48914C9.903 1.76524 9.22962 1.17416 8.44621 0.766094C7.66281 0.358025 6.7925 0.145013 5.90918 0.145142C4.45049 0.145142 3.05154 0.724604 2.02009 1.75605C0.988642 2.7875 0.40918 4.18645 0.40918 5.64514C0.40918 11.3641 6.90918 16.0831 10.4092 18.4951C13.9092 16.0831 20.4092 11.3641 20.4092 5.64514C20.4092 4.92287 20.2669 4.20767 19.9905 3.54038C19.7141 2.87309 19.309 2.26678 18.7983 1.75605C18.2875 1.24533 17.6812 0.840205 17.0139 0.563804C16.3466 0.287403 15.6314 0.145142 14.9092 0.145142Z" fill="#B7B7BA"/>
</svg>
