<svg width="12" height="17" viewBox="0 0 12 17" fill="none" xmlns="http://www.w3.org/2000/svg">
<path d="M5.90918 0.792664C2.87284 0.792664 0.40918 3.09659 0.40918 5.93552C0.40918 10.5069 5.90918 16.7927 5.90918 16.7927C5.90918 16.7927 11.4092 10.5069 11.4092 5.93552C11.4092 3.09659 8.94552 0.792664 5.90918 0.792664ZM5.90918 8.79266C5.47406 8.79266 5.04871 8.65861 4.68693 8.40745C4.32514 8.15629 4.04316 7.79931 3.87664 7.38165C3.71013 6.96399 3.66656 6.50441 3.75145 6.06103C3.83634 5.61764 4.04587 5.21037 4.35354 4.89071C4.66122 4.57104 5.05322 4.35335 5.47998 4.26515C5.90674 4.17696 6.34909 4.22222 6.75108 4.39522C7.15308 4.56822 7.49667 4.86119 7.73841 5.23707C7.98015 5.61296 8.10918 6.05488 8.10918 6.50695C8.10854 7.11296 7.87655 7.69395 7.46411 8.12246C7.05167 8.55097 6.49246 8.792 5.90918 8.79266Z" fill="#B8D153"/>
</svg>
