<svg width="15" height="13" viewBox="0 0 15 13" fill="none" xmlns="http://www.w3.org/2000/svg">
<path fill-rule="evenodd" clip-rule="evenodd" d="M5.87514 12.3285H8.89837C11.0216 12.3285 12.0835 12.3285 12.8461 11.8261C13.1752 11.6094 13.4586 11.3298 13.6802 11.0031C14.1897 10.2512 14.1897 9.20328 14.1897 7.10884C14.1897 5.01372 14.1897 3.9665 13.6802 3.21458C13.4586 2.88791 13.1752 2.60826 12.8461 2.39157C12.3563 2.06824 11.7427 1.95272 10.8032 1.9117C10.3549 1.9117 9.96915 1.57676 9.8814 1.1427C9.81433 0.824748 9.64008 0.539817 9.38808 0.336056C9.13608 0.132296 8.82181 0.0222033 8.49836 0.0243848H6.27515C5.60302 0.0243848 5.02409 0.492626 4.89211 1.1427C4.80435 1.57676 4.41863 1.9117 3.97031 1.9117C3.0315 1.95272 2.41788 2.06892 1.92738 2.39157C1.59854 2.6083 1.31537 2.88795 1.09402 3.21458C0.583801 3.9665 0.583801 5.01372 0.583801 7.10884C0.583801 9.20328 0.583801 10.2505 1.09334 11.0031C1.31376 11.3285 1.59676 11.6081 1.92738 11.8261C2.69 12.3285 3.75194 12.3285 5.87514 12.3285ZM7.38675 4.31238C5.82139 4.31238 4.55196 5.56399 4.55196 7.10816C4.55196 8.65301 5.82139 9.90462 7.38675 9.90462C8.95211 9.90462 10.2215 8.65301 10.2215 7.10884C10.2215 5.56399 8.95211 4.31238 7.38675 4.31238ZM7.38675 5.43069C6.44795 5.43069 5.68602 6.18193 5.68602 7.10884C5.68602 8.03507 6.44795 8.78631 7.38675 8.78631C8.32556 8.78631 9.08749 8.03507 9.08749 7.10884C9.08749 6.18193 8.32556 5.43069 7.38675 5.43069ZM10.5991 4.87154C10.5991 4.56257 10.8529 4.31238 11.1665 4.31238H11.9216C12.2345 4.31238 12.489 4.56257 12.489 4.87154C12.4875 5.02117 12.427 5.16411 12.3208 5.26895C12.2145 5.37379 12.0712 5.43197 11.9223 5.43069H11.1665C11.0927 5.43141 11.0195 5.41752 10.951 5.38981C10.8826 5.3621 10.8202 5.32112 10.7675 5.26919C10.7148 5.21727 10.6729 5.15543 10.644 5.0872C10.6151 5.01897 10.5998 4.94569 10.5991 4.87154Z" fill="white"/>
</svg>
