<svg width="59" height="22" viewBox="0 0 59 22" fill="none" xmlns="http://www.w3.org/2000/svg">
<g id="Group 111334">
<rect id="Rectangle 573" x="0.40918" y="0.505493" width="58.011" height="20.8477" rx="5" fill="#B7CF53"/>
<path id="Sale" d="M24.3671 9.58571C24.316 9.15389 24.1086 8.81866 23.745 8.58003C23.3813 8.34139 22.9353 8.22207 22.4069 8.22207C22.0206 8.22207 21.6825 8.28457 21.3927 8.40957C21.1058 8.53457 20.8813 8.70645 20.7194 8.9252C20.5603 9.14395 20.4808 9.39253 20.4808 9.67094C20.4808 9.90389 20.5362 10.1042 20.647 10.2718C20.7606 10.4366 20.9055 10.5743 21.0816 10.6851C21.2578 10.7931 21.4424 10.8826 21.6356 10.9536C21.8288 11.0218 22.0063 11.0772 22.1683 11.1198L23.0546 11.3584C23.2819 11.4181 23.5348 11.5005 23.8132 11.6056C24.0944 11.7107 24.3629 11.8542 24.6186 12.036C24.8771 12.215 25.0902 12.4451 25.2578 12.7263C25.4254 13.0076 25.5092 13.3528 25.5092 13.7618C25.5092 14.2334 25.3856 14.6596 25.1385 15.0403C24.8941 15.4209 24.5362 15.7235 24.0646 15.9479C23.5958 16.1724 23.0262 16.2846 22.3558 16.2846C21.7308 16.2846 21.1896 16.1837 20.7322 15.982C20.2777 15.7803 19.9197 15.4991 19.6583 15.1383C19.3998 14.7775 19.2535 14.3584 19.2194 13.8812H20.3103C20.3387 14.2107 20.4495 14.4834 20.6427 14.6993C20.8387 14.9124 21.0859 15.0715 21.3842 15.1766C21.6853 15.2789 22.0092 15.33 22.3558 15.33C22.7592 15.33 23.1214 15.2647 23.4424 15.134C23.7635 15.0005 24.0177 14.8158 24.2052 14.58C24.3927 14.3414 24.4865 14.063 24.4865 13.7448C24.4865 13.455 24.4055 13.2192 24.2436 13.0374C24.0816 12.8556 23.8686 12.7079 23.6044 12.5942C23.3402 12.4806 23.0546 12.3812 22.7478 12.2959L21.674 11.9891C20.9921 11.7931 20.4524 11.5133 20.0546 11.1496C19.6569 10.786 19.4581 10.3101 19.4581 9.72207C19.4581 9.23344 19.5902 8.8073 19.8544 8.44366C20.1214 8.07719 20.4794 7.7931 20.9282 7.59139C21.3799 7.38685 21.8842 7.28457 22.441 7.28457C23.0035 7.28457 23.5035 7.38543 23.941 7.58713C24.3785 7.78599 24.7251 8.05872 24.9808 8.40531C25.2393 8.7519 25.3757 9.14537 25.3899 9.58571H24.3671ZM29.0365 16.2846C28.6218 16.2846 28.2453 16.2064 27.9073 16.0502C27.5692 15.8911 27.3007 15.6624 27.1019 15.3641C26.903 15.063 26.8036 14.6993 26.8036 14.2732C26.8036 13.8982 26.8774 13.5942 27.0252 13.3613C27.1729 13.1255 27.3703 12.9408 27.6175 12.8073C27.8647 12.6738 28.1374 12.5743 28.4357 12.509C28.7368 12.4408 29.0394 12.3868 29.3434 12.3471C29.7411 12.2959 30.0635 12.2576 30.3107 12.232C30.5607 12.2036 30.7425 12.1567 30.8561 12.0914C30.9726 12.0261 31.0309 11.9124 31.0309 11.7505V11.7164C31.0309 11.2959 30.9158 10.9692 30.6857 10.7363C30.4584 10.5033 30.1132 10.3868 29.6502 10.3868C29.1701 10.3868 28.7936 10.492 28.5209 10.7022C28.2482 10.9124 28.0564 11.1368 27.9456 11.3755L26.9911 11.0346C27.1615 10.6368 27.3888 10.3272 27.6729 10.1056C27.9598 9.88116 28.2723 9.72491 28.6104 9.63685C28.9513 9.54594 29.2865 9.50048 29.6161 9.50048C29.8263 9.50048 30.0678 9.52605 30.3405 9.57719C30.6161 9.62548 30.8817 9.72633 31.1374 9.87974C31.3959 10.0332 31.6104 10.2647 31.7809 10.5743C31.9513 10.884 32.0365 11.2988 32.0365 11.8187V16.1312H31.0309V15.2448H30.9797C30.9115 15.3868 30.7979 15.5388 30.6388 15.7008C30.4797 15.8627 30.2681 16.0005 30.0039 16.1141C29.7397 16.2278 29.4172 16.2846 29.0365 16.2846ZM29.1899 15.3812C29.5877 15.3812 29.9229 15.303 30.1956 15.1468C30.4712 14.9905 30.6786 14.7888 30.8178 14.5417C30.9598 14.2945 31.0309 14.0346 31.0309 13.7618V12.8414C30.9882 12.8925 30.8945 12.9394 30.7496 12.982C30.6076 13.0218 30.4428 13.0573 30.2553 13.0886C30.0706 13.117 29.8902 13.1425 29.7141 13.1653C29.5408 13.1851 29.4002 13.2022 29.2922 13.2164C29.0309 13.2505 28.7865 13.3059 28.5593 13.3826C28.3348 13.4564 28.153 13.5687 28.0138 13.7192C27.8774 13.867 27.8093 14.0687 27.8093 14.3243C27.8093 14.6738 27.9385 14.938 28.197 15.117C28.4584 15.2931 28.7894 15.3812 29.1899 15.3812ZM34.8778 7.40389V16.1312H33.8721V7.40389H34.8778ZM39.4641 16.2675C38.8334 16.2675 38.2894 16.1283 37.832 15.8499C37.3774 15.5687 37.0266 15.1766 36.7794 14.6738C36.5351 14.1681 36.413 13.58 36.413 12.9096C36.413 12.2391 36.5351 11.6482 36.7794 11.1368C37.0266 10.6226 37.3703 10.2221 37.8107 9.93514C38.2539 9.64537 38.7709 9.50048 39.3618 9.50048C39.7027 9.50048 40.0394 9.5573 40.3718 9.67094C40.7041 9.78457 41.0067 9.96923 41.2794 10.2249C41.5522 10.4778 41.7695 10.813 41.9314 11.2306C42.0934 11.6482 42.1743 12.1624 42.1743 12.7732V13.1993H37.1289V12.33H41.1516C41.1516 11.9607 41.0777 11.6312 40.93 11.3414C40.7851 11.0516 40.5777 10.8229 40.3078 10.6553C40.0408 10.4877 39.7255 10.4039 39.3618 10.4039C38.9612 10.4039 38.6147 10.5033 38.322 10.7022C38.0323 10.8982 37.8093 11.1539 37.653 11.4692C37.4968 11.7846 37.4186 12.1226 37.4186 12.4834V13.063C37.4186 13.5573 37.5039 13.9763 37.6743 14.3201C37.8476 14.661 38.0877 14.9209 38.3945 15.0999C38.7013 15.2761 39.0578 15.3641 39.4641 15.3641C39.7283 15.3641 39.9669 15.3272 40.18 15.2533C40.3959 15.1766 40.582 15.063 40.7382 14.9124C40.8945 14.759 41.0152 14.5687 41.1005 14.3414L42.072 14.6141C41.9698 14.9437 41.7979 15.2334 41.5564 15.4834C41.3149 15.7306 41.0166 15.9238 40.6615 16.063C40.3064 16.1993 39.9073 16.2675 39.4641 16.2675Z" fill="white"/>
</g>
</svg>
