<svg width="29" height="22" viewBox="0 0 29 22" fill="none" xmlns="http://www.w3.org/2000/svg">
<path fill-rule="evenodd" clip-rule="evenodd" d="M27.5219 20.1903H26.8219V7.09155L27.2502 7.26632C27.3384 7.30199 27.4309 7.31915 27.5219 7.31915C27.7943 7.31915 28.0544 7.16381 28.1673 6.90451C28.317 6.55991 28.1499 6.16291 27.7935 6.01752L14.4936 0.597865C14.3201 0.527844 14.1245 0.527844 13.9509 0.597865L0.651077 6.01752C0.294081 6.16296 0.127505 6.55996 0.277292 6.90451C0.427571 7.2505 0.840566 7.40944 1.19379 7.26627L1.62221 7.0915V20.1903H0.922159C0.535305 20.1903 0.222168 20.4934 0.222168 20.8678C0.222168 21.2423 0.535305 21.5453 0.922159 21.5453H27.5219C27.9087 21.5453 28.2218 21.2423 28.2218 20.8678C28.2218 20.4934 27.9087 20.1903 27.5219 20.1903ZM22.6218 17.4806V20.1903H5.8221V17.4806H22.6218ZM5.8221 13.4163V16.1261H22.6218V13.4163H5.8221ZM22.6218 9.35157V12.0614H5.8221V9.35157H22.6218ZM24.0219 20.1903H25.4218V6.5207L14.222 1.95691L3.02213 6.52112V20.1908H4.42211V9.35157C4.42211 8.6032 5.04883 7.99665 5.8221 7.99665H22.6218C23.3952 7.99665 24.0219 8.60319 24.0219 9.35109V20.1903Z" fill="#6F7075"/>
</svg>
