<svg width="33" height="33" viewBox="0 0 33 33" fill="none" xmlns="http://www.w3.org/2000/svg">
<path d="M16.5 33C25.6127 33 33 25.6127 33 16.5C33 7.3873 25.6127 0 16.5 0C7.3873 0 0 7.3873 0 16.5C0 25.6127 7.3873 33 16.5 33Z" fill="#B2D235"/>
<path d="M16.5 6.1875C20.4868 6.1875 23.7188 9.41945 23.7188 13.4063C23.7188 15.3728 22.9324 17.1557 21.6569 18.4577L21.6554 26.0392C21.6554 26.6291 21.0298 26.9884 20.529 26.7279L20.4368 26.6717L16.499 23.9L12.5634 26.6716C12.0811 27.0113 11.427 26.7066 11.3517 26.147L11.3446 26.0392L11.3431 18.4577C10.0676 17.1557 9.28125 15.3728 9.28125 13.4063C9.28125 9.41945 12.5132 6.1875 16.5 6.1875ZM20.1086 24.549L20.1088 19.6596C19.0472 20.2736 17.8146 20.625 16.5 20.625C15.1854 20.625 13.9528 20.2736 12.8912 19.6596L12.8914 24.5486L16.0535 22.3216C16.2873 22.1572 16.5894 22.1365 16.8402 22.2599L16.9441 22.3216L20.1086 24.549ZM16.5 7.73438C13.3675 7.73438 10.8281 10.2738 10.8281 13.4063C10.8281 16.5388 13.3675 19.0781 16.5 19.0781C19.6325 19.0781 22.1719 16.5388 22.1719 13.4063C22.1719 10.2738 19.6325 7.73438 16.5 7.73438Z" fill="white"/>
</svg>
