<svg width="176" height="50" viewBox="0 0 176 50" fill="none" xmlns="http://www.w3.org/2000/svg">
<g filter="url(#filter0_d_1_1581)">
<g filter="url(#filter1_d_1_1581)">
<rect x="4" width="168" height="42" rx="21" fill="#B7CF53"/>
<path d="M62.188 27.192C61.324 27.192 60.5187 27.0533 59.772 26.776C59.036 26.488 58.396 26.0827 57.852 25.56C57.308 25.0373 56.8813 24.424 56.572 23.72C56.2733 23.016 56.124 22.2427 56.124 21.4C56.124 20.5573 56.2733 19.784 56.572 19.08C56.8813 18.376 57.308 17.7627 57.852 17.24C58.4067 16.7173 59.052 16.3173 59.788 16.04C60.524 15.752 61.3293 15.608 62.204 15.608C63.1747 15.608 64.0493 15.7787 64.828 16.12C65.6173 16.4507 66.2787 16.9413 66.812 17.592L65.148 19.128C64.764 18.6907 64.3373 18.3653 63.868 18.152C63.3987 17.928 62.8867 17.816 62.332 17.816C61.8093 17.816 61.3293 17.9013 60.892 18.072C60.4547 18.2427 60.076 18.488 59.756 18.808C59.436 19.128 59.1853 19.5067 59.004 19.944C58.8333 20.3813 58.748 20.8667 58.748 21.4C58.748 21.9333 58.8333 22.4187 59.004 22.856C59.1853 23.2933 59.436 23.672 59.756 23.992C60.076 24.312 60.4547 24.5573 60.892 24.728C61.3293 24.8987 61.8093 24.984 62.332 24.984C62.8867 24.984 63.3987 24.8773 63.868 24.664C64.3373 24.44 64.764 24.104 65.148 23.656L66.812 25.192C66.2787 25.8427 65.6173 26.3387 64.828 26.68C64.0493 27.0213 63.1693 27.192 62.188 27.192ZM71.8655 27.128C70.9482 27.128 70.1322 26.936 69.4175 26.552C68.7135 26.168 68.1535 25.6453 67.7375 24.984C67.3322 24.312 67.1295 23.5493 67.1295 22.696C67.1295 21.832 67.3322 21.0693 67.7375 20.408C68.1535 19.736 68.7135 19.2133 69.4175 18.84C70.1322 18.456 70.9482 18.264 71.8655 18.264C72.7722 18.264 73.5828 18.456 74.2975 18.84C75.0122 19.2133 75.5722 19.7307 75.9775 20.392C76.3828 21.0533 76.5855 21.8213 76.5855 22.696C76.5855 23.5493 76.3828 24.312 75.9775 24.984C75.5722 25.6453 75.0122 26.168 74.2975 26.552C73.5828 26.936 72.7722 27.128 71.8655 27.128ZM71.8655 25.08C72.2815 25.08 72.6548 24.984 72.9855 24.792C73.3162 24.6 73.5775 24.328 73.7695 23.976C73.9615 23.6133 74.0575 23.1867 74.0575 22.696C74.0575 22.1947 73.9615 21.768 73.7695 21.416C73.5775 21.064 73.3162 20.792 72.9855 20.6C72.6548 20.408 72.2815 20.312 71.8655 20.312C71.4495 20.312 71.0762 20.408 70.7455 20.6C70.4148 20.792 70.1482 21.064 69.9455 21.416C69.7535 21.768 69.6575 22.1947 69.6575 22.696C69.6575 23.1867 69.7535 23.6133 69.9455 23.976C70.1482 24.328 70.4148 24.6 70.7455 24.792C71.0762 24.984 71.4495 25.08 71.8655 25.08ZM83.1659 18.264C83.8485 18.264 84.4565 18.4027 84.9899 18.68C85.5339 18.9467 85.9605 19.3627 86.2699 19.928C86.5792 20.4827 86.7339 21.1973 86.7339 22.072V27H84.2379V22.456C84.2379 21.7627 84.0832 21.2507 83.7739 20.92C83.4752 20.5893 83.0485 20.424 82.4939 20.424C82.0992 20.424 81.7419 20.5093 81.4219 20.68C81.1125 20.84 80.8672 21.0907 80.6859 21.432C80.5152 21.7733 80.4299 22.2107 80.4299 22.744V27H77.9339V18.392H80.3179V20.776L79.8699 20.056C80.1792 19.48 80.6219 19.0373 81.1979 18.728C81.7739 18.4187 82.4299 18.264 83.1659 18.264ZM92.1964 27.128C91.183 27.128 90.3937 26.872 89.8284 26.36C89.263 25.8373 88.9804 25.064 88.9804 24.04V16.488H91.4764V24.008C91.4764 24.3707 91.5724 24.6533 91.7644 24.856C91.9564 25.048 92.2177 25.144 92.5484 25.144C92.943 25.144 93.279 25.0373 93.5564 24.824L94.2284 26.584C93.9724 26.7653 93.663 26.904 93.3004 27C92.9484 27.0853 92.5804 27.128 92.1964 27.128ZM87.6524 20.504V18.584H93.6204V20.504H87.6524ZM100.59 27V25.32L100.43 24.952V21.944C100.43 21.4107 100.264 20.9947 99.9335 20.696C99.6135 20.3973 99.1175 20.248 98.4455 20.248C97.9868 20.248 97.5335 20.3227 97.0855 20.472C96.6482 20.6107 96.2748 20.8027 95.9655 21.048L95.0695 19.304C95.5388 18.9733 96.1042 18.7173 96.7655 18.536C97.4268 18.3547 98.0988 18.264 98.7815 18.264C100.094 18.264 101.112 18.5733 101.838 19.192C102.563 19.8107 102.926 20.776 102.926 22.088V27H100.59ZM97.9655 27.128C97.2935 27.128 96.7175 27.016 96.2375 26.792C95.7575 26.5573 95.3895 26.2427 95.1335 25.848C94.8775 25.4533 94.7495 25.0107 94.7495 24.52C94.7495 24.008 94.8722 23.56 95.1175 23.176C95.3735 22.792 95.7735 22.4933 96.3175 22.28C96.8615 22.056 97.5708 21.944 98.4455 21.944H100.734V23.4H98.7175C98.1308 23.4 97.7255 23.496 97.5015 23.688C97.2882 23.88 97.1815 24.12 97.1815 24.408C97.1815 24.728 97.3042 24.984 97.5495 25.176C97.8055 25.3573 98.1522 25.448 98.5895 25.448C99.0055 25.448 99.3788 25.352 99.7095 25.16C100.04 24.9573 100.28 24.664 100.43 24.28L100.814 25.432C100.632 25.9867 100.302 26.408 99.8215 26.696C99.3415 26.984 98.7228 27.128 97.9655 27.128ZM109.087 27.128C108.159 27.128 107.332 26.9413 106.607 26.568C105.882 26.184 105.311 25.656 104.895 24.984C104.49 24.312 104.287 23.5493 104.287 22.696C104.287 21.832 104.49 21.0693 104.895 20.408C105.311 19.736 105.882 19.2133 106.607 18.84C107.332 18.456 108.159 18.264 109.087 18.264C109.994 18.264 110.783 18.456 111.455 18.84C112.127 19.2133 112.623 19.752 112.943 20.456L111.007 21.496C110.783 21.0907 110.5 20.792 110.159 20.6C109.828 20.408 109.466 20.312 109.071 20.312C108.644 20.312 108.26 20.408 107.919 20.6C107.578 20.792 107.306 21.064 107.103 21.416C106.911 21.768 106.815 22.1947 106.815 22.696C106.815 23.1973 106.911 23.624 107.103 23.976C107.306 24.328 107.578 24.6 107.919 24.792C108.26 24.984 108.644 25.08 109.071 25.08C109.466 25.08 109.828 24.9893 110.159 24.808C110.5 24.616 110.783 24.312 111.007 23.896L112.943 24.952C112.623 25.6453 112.127 26.184 111.455 26.568C110.783 26.9413 109.994 27.128 109.087 27.128ZM117.705 27.128C116.692 27.128 115.902 26.872 115.337 26.36C114.772 25.8373 114.489 25.064 114.489 24.04V16.488H116.985V24.008C116.985 24.3707 117.081 24.6533 117.273 24.856C117.465 25.048 117.726 25.144 118.057 25.144C118.452 25.144 118.788 25.0373 119.065 24.824L119.737 26.584C119.481 26.7653 119.172 26.904 118.809 27C118.457 27.0853 118.089 27.128 117.705 27.128ZM113.161 20.504V18.584H119.129V20.504H113.161Z" fill="white"/>
</g>
</g>
<defs>
<filter id="filter0_d_1_1581" x="0" y="0" width="176" height="50" filterUnits="userSpaceOnUse" color-interpolation-filters="sRGB">
<feFlood flood-opacity="0" result="BackgroundImageFix"/>
<feColorMatrix in="SourceAlpha" type="matrix" values="0 0 0 0 0 0 0 0 0 0 0 0 0 0 0 0 0 0 127 0" result="hardAlpha"/>
<feOffset dy="4"/>
<feGaussianBlur stdDeviation="2"/>
<feComposite in2="hardAlpha" operator="out"/>
<feColorMatrix type="matrix" values="0 0 0 0 0 0 0 0 0 0 0 0 0 0 0 0 0 0 0.25 0"/>
<feBlend mode="normal" in2="BackgroundImageFix" result="effect1_dropShadow_1_1581"/>
<feBlend mode="normal" in="SourceGraphic" in2="effect1_dropShadow_1_1581" result="shape"/>
</filter>
<filter id="filter1_d_1_1581" x="0" y="0" width="176" height="50" filterUnits="userSpaceOnUse" color-interpolation-filters="sRGB">
<feFlood flood-opacity="0" result="BackgroundImageFix"/>
<feColorMatrix in="SourceAlpha" type="matrix" values="0 0 0 0 0 0 0 0 0 0 0 0 0 0 0 0 0 0 127 0" result="hardAlpha"/>
<feOffset dy="4"/>
<feGaussianBlur stdDeviation="2"/>
<feComposite in2="hardAlpha" operator="out"/>
<feColorMatrix type="matrix" values="0 0 0 0 0 0 0 0 0 0 0 0 0 0 0 0 0 0 0.25 0"/>
<feBlend mode="normal" in2="BackgroundImageFix" result="effect1_dropShadow_1_1581"/>
<feBlend mode="normal" in="SourceGraphic" in2="effect1_dropShadow_1_1581" result="shape"/>
</filter>
</defs>
</svg>
