<svg width="42" height="42" viewBox="0 0 42 42" fill="none" xmlns="http://www.w3.org/2000/svg">
<g clip-path="url(#clip0_1_1575)">
<circle cx="21" cy="21" r="21" fill="white"/>
<path d="M21 0C22.9277 0 24.7871 0.246094 26.5781 0.738281C28.3691 1.23047 30.0371 1.94141 31.582 2.87109C33.127 3.80078 34.542 4.89453 35.8271 6.15234C37.1123 7.41016 38.2129 8.8252 39.1289 10.3975C40.0449 11.9697 40.749 13.6445 41.2412 15.4219C41.7334 17.1992 41.9863 19.0586 42 21C42 22.7227 41.8018 24.3906 41.4053 26.0039C41.0088 27.6172 40.4346 29.1553 39.6826 30.6182C38.9307 32.0811 38.0283 33.4209 36.9756 34.6377C35.9229 35.8545 34.7334 36.9551 33.4072 37.9395C32.0811 38.9238 30.6592 39.7305 29.1416 40.3594C27.624 40.9883 26.0039 41.4531 24.2812 41.7539V27.0703H29.1826L30.1055 21H24.2812V17.0625C24.2812 16.3105 24.4043 15.7158 24.6504 15.2783C24.8965 14.8408 25.2246 14.5127 25.6348 14.2939C26.0449 14.0752 26.5098 13.9316 27.0293 13.8633C27.5488 13.7949 28.0889 13.7607 28.6494 13.7607H29.5107C29.7979 13.7607 30.0781 13.7676 30.3516 13.7812V8.61328C29.5859 8.47656 28.8066 8.37402 28.0137 8.30566C27.2207 8.2373 26.4346 8.20312 25.6553 8.20312C24.3838 8.20312 23.2559 8.39453 22.2715 8.77734C21.2871 9.16016 20.46 9.70703 19.79 10.418C19.1201 11.1289 18.6074 11.9834 18.252 12.9814C17.8965 13.9795 17.7188 15.1074 17.7188 16.3652V21H12.3867V27.0703H17.7188V41.7539C16.0098 41.4941 14.3896 41.0361 12.8584 40.3799C11.3271 39.7236 9.90527 38.917 8.59277 37.96C7.28027 37.0029 6.09766 35.9023 5.04492 34.6582C3.99219 33.4141 3.08984 32.0674 2.33789 30.6182C1.58594 29.1689 1.01172 27.6377 0.615234 26.0244C0.21875 24.4111 0.0136719 22.7363 0 21C0 19.0723 0.246094 17.2129 0.738281 15.4219C1.23047 13.6309 1.94141 11.9629 2.87109 10.418C3.80078 8.87305 4.89453 7.45801 6.15234 6.17285C7.41016 4.8877 8.8252 3.78711 10.3975 2.87109C11.9697 1.95508 13.6445 1.25098 15.4219 0.758789C17.1992 0.266602 19.0586 0.0136719 21 0Z" fill="#B7CF53"/>
</g>
<defs>
<clipPath id="clip0_1_1575">
<rect width="42" height="42" fill="white"/>
</clipPath>
</defs>
</svg>
