<svg width="31" height="31" viewBox="0 0 31 31" fill="none" xmlns="http://www.w3.org/2000/svg">
<circle cx="15.5" cy="15.5" r="15.5" fill="#F4F4F4"/>
<path d="M22.2663 10.2377C21.8753 9.84531 21.4111 9.53404 20.9002 9.32168C20.3893 9.10931 19.8417 9 19.2887 9C18.7357 9 18.1881 9.10931 17.6772 9.32168C17.1663 9.53404 16.7021 9.84531 16.3112 10.2377L15.4998 11.0517L14.6884 10.2377C13.8987 9.44548 12.8277 9.00041 11.7109 9.00041C10.5941 9.00041 9.52303 9.44548 8.73334 10.2377C7.94365 11.0299 7.5 12.1044 7.5 13.2248C7.5 14.3452 7.94365 15.4196 8.73334 16.2119L9.5447 17.0258L15.4998 23L21.4549 17.0258L22.2663 16.2119C22.6574 15.8197 22.9677 15.354 23.1794 14.8415C23.391 14.3289 23.5 13.7796 23.5 13.2248C23.5 12.67 23.391 12.1206 23.1794 11.6081C22.9677 11.0956 22.6574 10.6299 22.2663 10.2377Z" stroke="#979797" stroke-linecap="round" stroke-linejoin="round"/>
</svg>
