<svg width="43" height="43" viewBox="0 0 43 43" fill="none" xmlns="http://www.w3.org/2000/svg">
<circle cx="21.6539" cy="21.1304" r="21.1304" fill="#B7CF53"/>
<path d="M16.4834 9H26.5634C30.4034 9 33.5234 12.12 33.5234 15.96V26.04C33.5234 27.8859 32.7902 29.6562 31.4849 30.9615C30.1796 32.2667 28.4093 33 26.5634 33H16.4834C12.6434 33 9.52344 29.88 9.52344 26.04V15.96C9.52344 14.1141 10.2567 12.3438 11.562 11.0385C12.8672 9.73328 14.6375 9 16.4834 9ZM16.2434 11.4C15.0977 11.4 13.9989 11.8551 13.1887 12.6653C12.3786 13.4755 11.9234 14.5743 11.9234 15.72V26.28C11.9234 28.668 13.8554 30.6 16.2434 30.6H26.8034C27.9492 30.6 29.048 30.1449 29.8581 29.3347C30.6683 28.5245 31.1234 27.4257 31.1234 26.28V15.72C31.1234 13.332 29.1914 11.4 26.8034 11.4H16.2434ZM27.8234 13.2C28.2213 13.2 28.6028 13.358 28.8841 13.6393C29.1654 13.9206 29.3234 14.3022 29.3234 14.7C29.3234 15.0978 29.1654 15.4794 28.8841 15.7607C28.6028 16.042 28.2213 16.2 27.8234 16.2C27.4256 16.2 27.0441 16.042 26.7628 15.7607C26.4815 15.4794 26.3234 15.0978 26.3234 14.7C26.3234 14.3022 26.4815 13.9206 26.7628 13.6393C27.0441 13.358 27.4256 13.2 27.8234 13.2ZM21.5234 15C23.1147 15 24.6409 15.6321 25.7661 16.7574C26.8913 17.8826 27.5234 19.4087 27.5234 21C27.5234 22.5913 26.8913 24.1174 25.7661 25.2426C24.6409 26.3679 23.1147 27 21.5234 27C19.9321 27 18.406 26.3679 17.2808 25.2426C16.1556 24.1174 15.5234 22.5913 15.5234 21C15.5234 19.4087 16.1556 17.8826 17.2808 16.7574C18.406 15.6321 19.9321 15 21.5234 15ZM21.5234 17.4C20.5687 17.4 19.653 17.7793 18.9779 18.4544C18.3027 19.1295 17.9234 20.0452 17.9234 21C17.9234 21.9548 18.3027 22.8705 18.9779 23.5456C19.653 24.2207 20.5687 24.6 21.5234 24.6C22.4782 24.6 23.3939 24.2207 24.069 23.5456C24.7442 22.8705 25.1234 21.9548 25.1234 21C25.1234 20.0452 24.7442 19.1295 24.069 18.4544C23.3939 17.7793 22.4782 17.4 21.5234 17.4Z" fill="white"/>
</svg>
