<svg width="43" height="43" viewBox="0 0 43 43" fill="none" xmlns="http://www.w3.org/2000/svg">
<circle cx="21.3922" cy="21.1304" r="21.1304" fill="#B7CF53"/>
<path d="M14.3858 13.0417C14.3855 13.6826 14.1306 14.2972 13.6771 14.7501C13.2237 15.2031 12.6089 15.4574 11.9679 15.4571C11.327 15.4568 10.7124 15.2019 10.2595 14.7484C9.80647 14.295 9.55217 13.6802 9.55249 13.0392C9.55281 12.3983 9.80773 11.7837 10.2612 11.3308C10.7146 10.8778 11.3294 10.6235 11.9704 10.6238C12.6113 10.6241 13.2259 10.879 13.6789 11.3325C14.1318 11.7859 14.3861 12.4007 14.3858 13.0417ZM14.4583 17.2467H9.62499V32.375H14.4583V17.2467ZM22.095 17.2467H17.2858V32.375H22.0467V24.4362C22.0467 20.0137 27.8104 19.6029 27.8104 24.4362V32.375H32.5833V22.7929C32.5833 15.3375 24.0525 15.6154 22.0467 19.2767L22.095 17.2467Z" fill="white"/>
</svg>
