<svg width="35" height="29" viewBox="0 0 35 29" fill="none" xmlns="http://www.w3.org/2000/svg">
<path d="M2.31667 28.6856L0 25.4947L8.58294 19.1901L9.28277 20.0071L11.527 18.3731L13.0795 20.3L10.7548 21.8568L11.3742 22.5274L2.58212 29.0016L2.31667 28.6856Z" fill="#B2D235"/>
<path d="M22.4588 2.89026C23.7056 2.89026 24.8881 3.12919 25.974 3.54539L27.9126 1.21776C26.2636 0.447027 24.4135 0 22.4588 0C16.8039 0 12.0177 3.61476 10.4652 8.55518H13.6506C15.0744 5.2333 18.4851 2.89026 22.4588 2.89026Z" fill="#B2D235"/>
<path d="M30.5274 2.83817L29.2886 3.97886L28.3555 4.84208L28.3394 4.84979L22.1375 10.7999L19.6439 7.31615L16.748 8.91928L21.5181 15.9484L30.64 7.3701C31.4846 8.72659 31.9834 10.3066 31.9834 12.0099C31.9834 17.0428 27.712 21.1277 22.4673 21.1277C18.8314 21.1277 15.6621 19.1624 14.0613 16.2798H10.7633C12.5652 20.7963 17.1261 24.018 22.4673 24.018C29.3771 24.018 34.9999 18.6306 34.9999 12.0099C34.9918 8.33352 33.2543 5.04247 30.5274 2.83817Z" fill="#B2D235"/>
<path d="M10.4655 8.55432C10.4655 8.55432 9.1141 12.7471 10.7631 16.2771H14.0612C14.0612 16.2771 12.1467 12.5544 13.6509 8.55432H10.4655Z" fill="#B2D235"/>
</svg>
