<svg width="31" height="31" viewBox="0 0 31 31" fill="none" xmlns="http://www.w3.org/2000/svg">
<circle cx="15.5" cy="15.5" r="15.5" fill="#F4F4F4"/>
<path d="M19.3896 12.7559C20.4268 12.7559 21.2676 11.9151 21.2676 10.8779C21.2676 9.84078 20.4268 9 19.3896 9C18.3525 9 17.5117 9.84078 17.5117 10.8779C17.5117 11.9151 18.3525 12.7559 19.3896 12.7559Z" stroke="#979797" stroke-linecap="round" stroke-linejoin="round"/>
<path d="M11.8779 17.1377C12.9151 17.1377 13.7559 16.2969 13.7559 15.2598C13.7559 14.2226 12.9151 13.3818 11.8779 13.3818C10.8408 13.3818 10 14.2226 10 15.2598C10 16.2969 10.8408 17.1377 11.8779 17.1377Z" stroke="#979797" stroke-linecap="round" stroke-linejoin="round"/>
<path d="M19.3896 21.5195C20.4268 21.5195 21.2676 20.6788 21.2676 19.6416C21.2676 18.6044 20.4268 17.7637 19.3896 17.7637C18.3525 17.7637 17.5117 18.6044 17.5117 19.6416C17.5117 20.6788 18.3525 21.5195 19.3896 21.5195Z" stroke="#979797" stroke-linecap="round" stroke-linejoin="round"/>
<path d="M13.4991 16.205L17.7745 18.6964" stroke="#979797" stroke-linecap="round" stroke-linejoin="round"/>
<path d="M17.7683 11.8232L13.4991 14.3145" stroke="#979797" stroke-linecap="round" stroke-linejoin="round"/>
</svg>
