<svg width="43" height="43" viewBox="0 0 43 43" fill="none" xmlns="http://www.w3.org/2000/svg">
<circle cx="21.1304" cy="21.1304" r="21.1304" fill="#B7CF53"/>
<path d="M21.4373 11.7368C22.106 11.7405 23.779 11.7564 25.5571 11.8261L26.1883 11.853C27.9777 11.9349 29.7659 12.0768 30.6537 12.3177C31.8371 12.643 32.7663 13.5895 33.0806 14.7904C33.5815 16.6981 33.6441 20.4182 33.6516 21.3195L33.6529 21.5054V21.7181C33.6441 22.6194 33.5815 26.3407 33.0806 28.2472C32.7625 29.4518 31.8321 30.3995 30.6537 30.7199C29.7659 30.9608 27.9777 31.1027 26.1883 31.1846L25.5571 31.2128C23.779 31.2812 22.106 31.2984 21.4373 31.3008L21.143 31.302H20.8237C19.4087 31.2935 13.4906 31.2311 11.6072 30.7199C10.4251 30.3946 9.49471 29.4481 9.18039 28.2472C8.6795 26.3395 8.61689 22.6194 8.60938 21.7181V21.3195C8.61689 20.4182 8.6795 16.6969 9.18039 14.7904C9.49846 13.5858 10.4289 12.6381 11.6085 12.3189C13.4906 11.8065 19.4099 11.7442 20.8249 11.7368H21.4373ZM18.626 17.2399V25.8002L26.1394 21.52L18.626 17.2399Z" fill="white"/>
</svg>
